<svg id="Flat_Basic_Gradient" viewBox="0 0 64 64" xmlns="http://www.w3.org/2000/svg" xmlns:xlink="http://www.w3.org/1999/xlink" data-name="Flat Basic Gradient"><linearGradient id="linear-gradient" gradientUnits="userSpaceOnUse" x1="4" x2="60" y1="32" y2="32"><stop offset="0" stop-color="#ffde00"/><stop offset="1" stop-color="#fd5900"/></linearGradient><path d="m32 4.07229a28.03074 28.03074 0 0 0 -28 28c1.53693 37.14601 54.46868 37.1352 56-.00021a28.03078 28.03078 0 0 0 -28-27.99979zm0 51.17a23.19105 23.19105 0 0 1 -23.17-23.17c1.26685-30.73929 45.07777-30.73029 46.34.00017a23.19108 23.19108 0 0 1 -23.17 23.16981zm0-44.34a21.19163 21.19163 0 0 0 -21.17 21.17c1.161 28.08458 41.177 28.07682 42.34-.00016a21.1981 21.1981 0 0 0 -21.17-21.16989zm14.88 18.8-6.78 6.48 1.5 9.26a1.00607 1.00607 0 0 1 -1.46 1.03994l-8.26-4.44-8.35 4.29a1.00007 1.00007 0 0 1 -1.05005-.09 1.03247 1.03247 0 0 1 -.38995-.98l1.68-9.23-6.66-6.61a1.00659 1.00659 0 0 1 -.24-1.03.98628.98628 0 0 1 .81-.67l9.3-1.25995 4.22-8.37006a1.01348 1.01348 0 0 1 1.8.01006l4.07 8.45 9.27 1.44a1.01108 1.01108 0 0 1 .54 1.71001zm-10.64-1.25 7.79 1.19995-5.69 5.45a1.00613 1.00613 0 0 0 -.30005.88l1.26 7.78-6.94-3.73a1.00182 1.00182 0 0 0 -.93-.00995l-7.01 3.6 1.41-7.75a1.01251 1.01251 0 0 0 -.28-.89l-5.59-5.55 7.8-1.06a.99827.99827 0 0 0 .76-.54l3.56-7.03 3.42 7.1a1.00092 1.00092 0 0 0 .74005.55z" fill="url(#linear-gradient)"/></svg>